<mxfile host="app.diagrams.net" agent="Mozilla/5.0 (Windows NT 10.0; Win64; x64) AppleWebKit/537.36 (KHTML, like Gecko) Chrome/131.0.0.0 Safari/537.36 Edg/131.0.0.0" version="25.0.3">
  <diagram id="C5RBs43oDa-KdzZeNtuy" name="Page-1">
    <mxGraphModel dx="1042" dy="565" grid="1" gridSize="10" guides="1" tooltips="1" connect="1" arrows="1" fold="1" page="1" pageScale="1" pageWidth="827" pageHeight="1169" math="0" shadow="0">
      <root>
        <mxCell id="WIyWlLk6GJQsqaUBKTNV-0" />
        <mxCell id="WIyWlLk6GJQsqaUBKTNV-1" parent="WIyWlLk6GJQsqaUBKTNV-0" />
        <mxCell id="qLfVJ1vBOdK0UJD1BK3m-3" style="edgeStyle=orthogonalEdgeStyle;rounded=0;orthogonalLoop=1;jettySize=auto;html=1;entryX=0.5;entryY=0;entryDx=0;entryDy=0;" edge="1" parent="WIyWlLk6GJQsqaUBKTNV-1" source="qLfVJ1vBOdK0UJD1BK3m-0" target="qLfVJ1vBOdK0UJD1BK3m-2">
          <mxGeometry relative="1" as="geometry" />
        </mxCell>
        <mxCell id="qLfVJ1vBOdK0UJD1BK3m-0" value="START" style="ellipse;whiteSpace=wrap;html=1;" vertex="1" parent="WIyWlLk6GJQsqaUBKTNV-1">
          <mxGeometry x="340" y="20" width="120" height="80" as="geometry" />
        </mxCell>
        <mxCell id="qLfVJ1vBOdK0UJD1BK3m-6" style="edgeStyle=orthogonalEdgeStyle;rounded=0;orthogonalLoop=1;jettySize=auto;html=1;entryX=0.5;entryY=0;entryDx=0;entryDy=0;" edge="1" parent="WIyWlLk6GJQsqaUBKTNV-1" source="qLfVJ1vBOdK0UJD1BK3m-2" target="qLfVJ1vBOdK0UJD1BK3m-4">
          <mxGeometry relative="1" as="geometry" />
        </mxCell>
        <mxCell id="qLfVJ1vBOdK0UJD1BK3m-2" value="Nhap n&lt;br&gt;int count = 0" style="shape=parallelogram;perimeter=parallelogramPerimeter;whiteSpace=wrap;html=1;fixedSize=1;" vertex="1" parent="WIyWlLk6GJQsqaUBKTNV-1">
          <mxGeometry x="340" y="150" width="120" height="60" as="geometry" />
        </mxCell>
        <mxCell id="qLfVJ1vBOdK0UJD1BK3m-8" value="TRUE" style="edgeStyle=orthogonalEdgeStyle;rounded=0;orthogonalLoop=1;jettySize=auto;html=1;" edge="1" parent="WIyWlLk6GJQsqaUBKTNV-1" source="qLfVJ1vBOdK0UJD1BK3m-4">
          <mxGeometry relative="1" as="geometry">
            <mxPoint x="580" y="300" as="targetPoint" />
          </mxGeometry>
        </mxCell>
        <mxCell id="qLfVJ1vBOdK0UJD1BK3m-11" value="FALSE" style="edgeStyle=orthogonalEdgeStyle;rounded=0;orthogonalLoop=1;jettySize=auto;html=1;" edge="1" parent="WIyWlLk6GJQsqaUBKTNV-1" source="qLfVJ1vBOdK0UJD1BK3m-4" target="qLfVJ1vBOdK0UJD1BK3m-10">
          <mxGeometry relative="1" as="geometry" />
        </mxCell>
        <mxCell id="qLfVJ1vBOdK0UJD1BK3m-4" value="N &amp;lt; 2" style="rhombus;whiteSpace=wrap;html=1;" vertex="1" parent="WIyWlLk6GJQsqaUBKTNV-1">
          <mxGeometry x="360" y="260" width="80" height="80" as="geometry" />
        </mxCell>
        <mxCell id="qLfVJ1vBOdK0UJD1BK3m-28" style="edgeStyle=orthogonalEdgeStyle;rounded=0;orthogonalLoop=1;jettySize=auto;html=1;entryX=0.5;entryY=0;entryDx=0;entryDy=0;" edge="1" parent="WIyWlLk6GJQsqaUBKTNV-1" source="qLfVJ1vBOdK0UJD1BK3m-9" target="qLfVJ1vBOdK0UJD1BK3m-27">
          <mxGeometry relative="1" as="geometry" />
        </mxCell>
        <mxCell id="qLfVJ1vBOdK0UJD1BK3m-9" value="Ko phải số nguyên&lt;br&gt;tố" style="rounded=0;whiteSpace=wrap;html=1;" vertex="1" parent="WIyWlLk6GJQsqaUBKTNV-1">
          <mxGeometry x="580" y="270" width="120" height="60" as="geometry" />
        </mxCell>
        <mxCell id="qLfVJ1vBOdK0UJD1BK3m-13" style="edgeStyle=orthogonalEdgeStyle;rounded=0;orthogonalLoop=1;jettySize=auto;html=1;entryX=0.5;entryY=0;entryDx=0;entryDy=0;" edge="1" parent="WIyWlLk6GJQsqaUBKTNV-1" source="qLfVJ1vBOdK0UJD1BK3m-10" target="qLfVJ1vBOdK0UJD1BK3m-12">
          <mxGeometry relative="1" as="geometry" />
        </mxCell>
        <mxCell id="qLfVJ1vBOdK0UJD1BK3m-10" value="int i&amp;nbsp; = 1" style="whiteSpace=wrap;html=1;" vertex="1" parent="WIyWlLk6GJQsqaUBKTNV-1">
          <mxGeometry x="120" y="350" width="120" height="60" as="geometry" />
        </mxCell>
        <mxCell id="qLfVJ1vBOdK0UJD1BK3m-16" value="TRUE" style="edgeStyle=orthogonalEdgeStyle;rounded=0;orthogonalLoop=1;jettySize=auto;html=1;" edge="1" parent="WIyWlLk6GJQsqaUBKTNV-1" source="qLfVJ1vBOdK0UJD1BK3m-12">
          <mxGeometry relative="1" as="geometry">
            <mxPoint x="180" y="650" as="targetPoint" />
          </mxGeometry>
        </mxCell>
        <mxCell id="qLfVJ1vBOdK0UJD1BK3m-12" value="i &amp;lt;= n" style="rhombus;whiteSpace=wrap;html=1;" vertex="1" parent="WIyWlLk6GJQsqaUBKTNV-1">
          <mxGeometry x="110" y="480" width="140" height="80" as="geometry" />
        </mxCell>
        <mxCell id="qLfVJ1vBOdK0UJD1BK3m-20" value="TRUE" style="edgeStyle=orthogonalEdgeStyle;rounded=0;orthogonalLoop=1;jettySize=auto;html=1;entryX=0;entryY=0.5;entryDx=0;entryDy=0;" edge="1" parent="WIyWlLk6GJQsqaUBKTNV-1" source="qLfVJ1vBOdK0UJD1BK3m-17" target="qLfVJ1vBOdK0UJD1BK3m-18">
          <mxGeometry relative="1" as="geometry" />
        </mxCell>
        <mxCell id="qLfVJ1vBOdK0UJD1BK3m-30" value="FALSE" style="edgeStyle=orthogonalEdgeStyle;rounded=0;orthogonalLoop=1;jettySize=auto;html=1;exitX=1;exitY=0;exitDx=0;exitDy=0;entryX=0.5;entryY=1;entryDx=0;entryDy=0;" edge="1" parent="WIyWlLk6GJQsqaUBKTNV-1" source="qLfVJ1vBOdK0UJD1BK3m-17" target="qLfVJ1vBOdK0UJD1BK3m-31">
          <mxGeometry relative="1" as="geometry">
            <mxPoint x="300" y="610" as="targetPoint" />
            <Array as="points">
              <mxPoint x="215" y="650" />
              <mxPoint x="310" y="650" />
            </Array>
          </mxGeometry>
        </mxCell>
        <mxCell id="qLfVJ1vBOdK0UJD1BK3m-17" value="n % i == 0" style="rhombus;whiteSpace=wrap;html=1;" vertex="1" parent="WIyWlLk6GJQsqaUBKTNV-1">
          <mxGeometry x="110" y="650" width="140" height="80" as="geometry" />
        </mxCell>
        <mxCell id="qLfVJ1vBOdK0UJD1BK3m-22" style="edgeStyle=orthogonalEdgeStyle;rounded=0;orthogonalLoop=1;jettySize=auto;html=1;entryX=0;entryY=0.5;entryDx=0;entryDy=0;" edge="1" parent="WIyWlLk6GJQsqaUBKTNV-1" source="qLfVJ1vBOdK0UJD1BK3m-18" target="qLfVJ1vBOdK0UJD1BK3m-21">
          <mxGeometry relative="1" as="geometry" />
        </mxCell>
        <mxCell id="qLfVJ1vBOdK0UJD1BK3m-18" value="count += 1" style="rounded=0;whiteSpace=wrap;html=1;" vertex="1" parent="WIyWlLk6GJQsqaUBKTNV-1">
          <mxGeometry x="380" y="660" width="120" height="60" as="geometry" />
        </mxCell>
        <mxCell id="qLfVJ1vBOdK0UJD1BK3m-24" value="TRUE" style="edgeStyle=orthogonalEdgeStyle;rounded=0;orthogonalLoop=1;jettySize=auto;html=1;" edge="1" parent="WIyWlLk6GJQsqaUBKTNV-1" target="qLfVJ1vBOdK0UJD1BK3m-23">
          <mxGeometry relative="1" as="geometry">
            <mxPoint x="670" y="690" as="sourcePoint" />
          </mxGeometry>
        </mxCell>
        <mxCell id="qLfVJ1vBOdK0UJD1BK3m-25" value="FALSE" style="edgeStyle=orthogonalEdgeStyle;rounded=0;orthogonalLoop=1;jettySize=auto;html=1;entryX=0.5;entryY=1;entryDx=0;entryDy=0;" edge="1" parent="WIyWlLk6GJQsqaUBKTNV-1" target="qLfVJ1vBOdK0UJD1BK3m-9">
          <mxGeometry relative="1" as="geometry">
            <mxPoint x="630" y="650" as="sourcePoint" />
            <Array as="points">
              <mxPoint x="630" y="330" />
            </Array>
          </mxGeometry>
        </mxCell>
        <mxCell id="qLfVJ1vBOdK0UJD1BK3m-21" value="count == 2" style="rhombus;whiteSpace=wrap;html=1;" vertex="1" parent="WIyWlLk6GJQsqaUBKTNV-1">
          <mxGeometry x="590" y="650" width="80" height="80" as="geometry" />
        </mxCell>
        <mxCell id="qLfVJ1vBOdK0UJD1BK3m-26" style="edgeStyle=orthogonalEdgeStyle;rounded=0;orthogonalLoop=1;jettySize=auto;html=1;" edge="1" parent="WIyWlLk6GJQsqaUBKTNV-1" source="qLfVJ1vBOdK0UJD1BK3m-23">
          <mxGeometry relative="1" as="geometry">
            <mxPoint x="910" y="540" as="targetPoint" />
            <Array as="points">
              <mxPoint x="911" y="690" />
            </Array>
          </mxGeometry>
        </mxCell>
        <mxCell id="qLfVJ1vBOdK0UJD1BK3m-23" value="La so nguyen to" style="whiteSpace=wrap;html=1;" vertex="1" parent="WIyWlLk6GJQsqaUBKTNV-1">
          <mxGeometry x="760" y="660" width="120" height="60" as="geometry" />
        </mxCell>
        <mxCell id="qLfVJ1vBOdK0UJD1BK3m-27" value="END" style="ellipse;whiteSpace=wrap;html=1;" vertex="1" parent="WIyWlLk6GJQsqaUBKTNV-1">
          <mxGeometry x="850" y="460" width="120" height="80" as="geometry" />
        </mxCell>
        <mxCell id="qLfVJ1vBOdK0UJD1BK3m-32" style="edgeStyle=orthogonalEdgeStyle;rounded=0;orthogonalLoop=1;jettySize=auto;html=1;entryX=1;entryY=0.5;entryDx=0;entryDy=0;" edge="1" parent="WIyWlLk6GJQsqaUBKTNV-1" source="qLfVJ1vBOdK0UJD1BK3m-31" target="qLfVJ1vBOdK0UJD1BK3m-12">
          <mxGeometry relative="1" as="geometry" />
        </mxCell>
        <mxCell id="qLfVJ1vBOdK0UJD1BK3m-31" value="i++" style="rounded=0;whiteSpace=wrap;html=1;" vertex="1" parent="WIyWlLk6GJQsqaUBKTNV-1">
          <mxGeometry x="250" y="570" width="120" height="60" as="geometry" />
        </mxCell>
      </root>
    </mxGraphModel>
  </diagram>
</mxfile>
